SplineFontDB: 3.2
FontName: Mukdum-Regular-Unicode
FullName: Mukdum Regular Unicode
FamilyName: Mukdum
Weight: Regular
Copyright: 2022
Version: 1.000
ItalicAngle: 0
UnderlinePosition: -125
UnderlineWidth: 50
Ascent: 750
Descent: 250
InvalidEm: 0
sfntRevision: 0x00010000
LayerCount: 2
Layer: 0 1 "Back" 1
Layer: 1 1 "Fore" 0
XUID: [1021 341 221541093 7872395]
StyleMap: 0x0040
FSType: 4
OS2Version: 4
OS2_WeightWidthSlopeOnly: 0
OS2_UseTypoMetrics: 1
CreationTime: 1602149481
ModificationTime: 1648790433
PfmFamily: 81
TTFWeight: 400
TTFWidth: 5
LineGap: 100
VLineGap: 0
Panose: 0 0 0 0 0 0 0 0 0 0
OS2TypoAscent: 750
OS2TypoAOffset: 0
OS2TypoDescent: -250
OS2TypoDOffset: 0
OS2TypoLinegap: 100
OS2WinAscent: 750
OS2WinAOffset: 0
OS2WinDescent: 250
OS2WinDOffset: 0
HheadAscent: 750
HheadAOffset: 0
HheadDescent: -250
HheadDOffset: 0
OS2SubXSize: 650
OS2SubYSize: 600
OS2SubXOff: 0
OS2SubYOff: 75
OS2SupXSize: 650
OS2SupYSize: 600
OS2SupXOff: 0
OS2SupYOff: 350
OS2StrikeYSize: 50
OS2StrikeYPos: 300
OS2CapHeight: 700
OS2XHeight: 500
OS2Vendor: 'MOJI'
OS2CodePages: 00000001.00000000
OS2UnicodeRanges: 00000001.00000000.00000000.00000000
MarkAttachClasses: 1
DEI: 91125
TtTable: prep
PUSHW_1
 0
CALL
SVTCA[y-axis]
PUSHW_3
 1
 2
 2
CALL
SVTCA[x-axis]
PUSHW_3
 3
 2
 2
CALL
SVTCA[x-axis]
PUSHW_8
 3
 97
 79
 62
 39
 24
 0
 8
CALL
PUSHW_8
 4
 80
 68
 53
 39
 24
 0
 8
CALL
SVTCA[y-axis]
PUSHW_8
 1
 76
 68
 53
 39
 24
 0
 8
CALL
PUSHW_8
 2
 91
 68
 53
 39
 24
 0
 8
CALL
SVTCA[y-axis]
PUSHW_3
 5
 4
 7
CALL
PUSHW_1
 0
DUP
RCVT
RDTG
ROUND[Black]
RTG
WCVTP
EndTTInstrs
TtTable: fpgm
PUSHW_1
 0
FDEF
MPPEM
PUSHW_1
 9
LT
IF
PUSHB_2
 1
 1
INSTCTRL
EIF
PUSHW_1
 511
SCANCTRL
PUSHW_1
 68
SCVTCI
PUSHW_2
 9
 3
SDS
SDB
ENDF
PUSHW_1
 1
FDEF
DUP
DUP
RCVT
ROUND[Black]
WCVTP
PUSHB_1
 1
ADD
ENDF
PUSHW_1
 2
FDEF
PUSHW_1
 1
LOOPCALL
POP
ENDF
PUSHW_1
 3
FDEF
DUP
GC[cur]
PUSHB_1
 3
CINDEX
GC[cur]
GT
IF
SWAP
EIF
DUP
ROLL
DUP
ROLL
MD[grid]
ABS
ROLL
DUP
GC[cur]
DUP
ROUND[Grey]
SUB
ABS
PUSHB_1
 4
CINDEX
GC[cur]
DUP

StartChar: SUNUWAR_LETTER_PIP
Encoding: 0 72649 0
Width: 489
GlyphClass: 2
Flags: W
LayerCount: 2
Fore
SplineSet
0 340 m 2,0,-1
 1 359 l 2,1,2
 2 392 2 392 20 414.5 c 128,-1,3
 38 437 38 437 63 451 c 128,-1,4
 88 465 88 465 115.5 471 c 128,-1,5
 143 477 143 477 164 477 c 0,6,7
 213 477 213 477 252.5 456 c 128,-1,8
 292 435 292 435 312 388 c 1,9,10
 312 362 312 362 313 342 c 0,11,12
 314 324 314 324 315.5 309.5 c 128,-1,13
 317 295 317 295 320 295 c 0,14,15
 337 300 337 300 347.5 320.5 c 128,-1,16
 358 341 358 341 363.5 368.5 c 128,-1,17
 369 396 369 396 371 427.5 c 128,-1,18
 373 459 373 459 373 486 c 2,19,-1
 373 532 l 2,20,21
 372 543 372 543 372 551 c 1,22,-1
 419 523 l 1,23,-1
 419 405 l 2,24,25
 419 340 419 340 406.5 303.5 c 128,-1,26
 394 267 394 267 377.5 249 c 128,-1,27
 361 231 361 231 345 226.5 c 128,-1,28
 329 222 329 222 322 222 c 2,29,-1
 318 222 l 1,30,31
 320 146 320 146 321.5 93.5 c 128,-1,32
 323 41 323 41 323 8 c 0,33,34
 324 -30 324 -30 324 -54 c 0,35,36
 323 -65 323 -65 319 -75 c 0,37,38
 315 -83 315 -83 308 -92.5 c 128,-1,39
 301 -102 301 -102 288 -108 c 0,40,41
 263 -121 263 -121 234 -126.5 c 128,-1,42
 205 -132 205 -132 173 -134 c 2,43,-1
 151 -135 l 1,44,-1
 122 -135 l 2,45,46
 106 -135 106 -135 94 -134 c 128,-1,47
 82 -133 82 -133 72 -128 c 128,-1,48
 62 -123 62 -123 52 -111.5 c 128,-1,49
 42 -100 42 -100 30 -80 c 1,50,-1
 0 0 l 1,51,52
 21 -26 21 -26 41 -40.5 c 128,-1,53
 61 -55 61 -55 79.5 -62.5 c 128,-1,54
 98 -70 98 -70 114.5 -72 c 128,-1,55
 131 -74 131 -74 144 -74 c 0,56,57
 155 -74 155 -74 170.5 -72 c 128,-1,58
 186 -70 186 -70 201 -65.5 c 128,-1,59
 216 -61 216 -61 227.5 -53 c 128,-1,60
 239 -45 239 -45 242 -34 c 0,61,62
 242 -30 242 -30 247 -20 c 0,63,64
 254 -5 254 -5 256 20 c 128,-1,65
 258 45 258 45 258 76 c 0,66,67
 258 100 258 100 257.5 124 c 128,-1,68
 257 148 257 148 256 168 c 0,69,70
 254 191 254 191 253 213 c 1,71,-1
 246 213 l 2,72,73
 236 213 236 213 214 213 c 128,-1,74
 192 213 192 213 166.5 214 c 128,-1,75
 141 215 141 215 115 217.5 c 128,-1,76
 89 220 89 220 71 224 c 0,77,78
 56 227 56 227 42.5 233.5 c 128,-1,79
 29 240 29 240 19.5 253 c 128,-1,80
 10 266 10 266 4.5 287 c 128,-1,81
 -1 308 -1 308 0 340 c 2,0,-1
141 268 m 0,82,83
 195 268 195 268 222 273.5 c 128,-1,84
 249 279 249 279 249 303 c 0,85,86
 249 306 249 306 248.5 309 c 128,-1,87
 248 312 248 312 247 316 c 0,88,89
 239 361 239 361 219.5 382.5 c 128,-1,90
 200 404 200 404 162 404 c 0,91,92
 150 404 150 404 135 401 c 1,93,94
 101 384 101 384 88 368 c 128,-1,95
 75 352 75 352 75 337 c 256,96,97
 75 322 75 322 84 309.5 c 128,-1,98
 93 297 93 297 104.5 288 c 128,-1,99
 116 279 116 279 127 273.5 c 128,-1,100
 138 268 138 268 141 268 c 0,82,83
EndSplineSet
Validated: 33
EndChar

StartChar: SUNUWAR_LETTER_APPHO
Encoding: 1 72648 1
Width: 306
GlyphClass: 2
Flags: W
LayerCount: 2
Fore
SplineSet
27 223 m 1,0,1
 21 245 21 245 19 267 c 0,2,3
 17 287 17 287 18 309.5 c 128,-1,4
 19 332 19 332 28 353 c 0,5,6
 35 368 35 368 48.5 392 c 128,-1,7
 62 416 62 416 97 443 c 2,8,-1
 235 548 l 1,9,-1
 235 93 l 2,10,11
 235 53 235 53 235 21 c 128,-1,12
 235 -11 235 -11 236 -34 c 0,13,14
 236 -60 236 -60 236 -81 c 1,15,16
 225 -103 225 -103 208.5 -116 c 128,-1,17
 192 -129 192 -129 166.5 -135.5 c 128,-1,18
 141 -142 141 -142 104 -144 c 128,-1,19
 67 -146 67 -146 14 -146 c 1,20,21
 31 -140 31 -140 55.5 -135 c 128,-1,22
 80 -130 80 -130 104 -121 c 128,-1,23
 128 -112 128 -112 147 -96 c 128,-1,24
 166 -80 166 -80 172 -52 c 1,25,-1
 172 134 l 1,26,-1
 132 150 l 2,27,28
 130 150 130 150 128 152 c 2,29,-1
 89 172 l 2,30,31
 79 178 79 178 70 189 c 2,32,-1
 27 223 l 1,0,1
70 189 m 2,33,-1
 97 168 l 1,34,-1
 129 152 l 2,35,36
 134 152 134 152 142 147 c 2,37,-1
 151 143 l 2,38,39
 153 141 153 141 155.5 141 c 128,-1,40
 158 141 158 141 161 140 c 0,41,42
 164 138 164 138 172 134 c 1,43,-1
 172 436 l 1,44,45
 142 414 142 414 121 395 c 128,-1,46
 100 376 100 376 86.5 356.5 c 128,-1,47
 73 337 73 337 66.5 315 c 128,-1,48
 60 293 60 293 60 266 c 0,49,50
 60 259 60 259 59 249.5 c 128,-1,51
 58 240 58 240 58 230 c 128,-1,52
 58 220 58 220 60.5 209.5 c 128,-1,53
 63 199 63 199 70 189 c 2,33,-1
EndSplineSet
Validated: 37
EndChar

StartChar: SUNUWAR_LETTER_BUR
Encoding: 2 72654 2
Width: 399
GlyphClass: 2
Flags: W
LayerCount: 2
Fore
SplineSet
0 -74 m 2,0,-1
 2 -41 l 2,1,2
 2 -37 2 -37 2.5 -34 c 128,-1,3
 3 -31 3 -31 3 -29 c 2,4,-1
 3 -25 l 1,5,6
 8 -30 8 -30 14.5 -38 c 128,-1,7
 21 -46 21 -46 27.5 -53 c 128,-1,8
 34 -60 34 -60 41.5 -65 c 128,-1,9
 49 -70 49 -70 57 -70 c 0,10,11
 76 -70 76 -70 95.5 -65.5 c 128,-1,12
 115 -61 115 -61 132 -54.5 c 128,-1,13
 149 -48 149 -48 162.5 -40 c 128,-1,14
 176 -32 176 -32 183 -25 c 1,15,-1
 183 276 l 1,16,-1
 92 218 l 1,17,-1
 59 269 l 1,18,-1
 183 337 l 1,19,-1
 183 550 l 1,20,-1
 238 503 l 1,21,-1
 238 363 l 1,22,-1
 297 395 l 1,23,-1
 329 344 l 1,24,-1
 240 300 l 1,25,-1
 240 -81 l 1,26,27
 229 -91 229 -91 206 -101.5 c 128,-1,28
 183 -112 183 -112 155 -121 c 128,-1,29
 127 -130 127 -130 98 -135.5 c 128,-1,30
 69 -141 69 -141 46 -141 c 0,31,32
 12 -141 12 -141 5.5 -125 c 128,-1,33
 -1 -109 -1 -109 0 -74 c 2,0,-1
EndSplineSet
Validated: 33
EndChar

StartChar: SUNUWAR_LETTER_CARMI
Encoding: 3 72652 3
Width: 380
GlyphClass: 2
Flags: W
LayerCount: 2
Fore
SplineSet
228 556 m 1,0,-1
 310 509 l 1,1,2
 306 506 306 506 288 490 c 128,-1,3
 270 474 270 474 242 450 c 128,-1,4
 214 426 214 426 177.5 395.5 c 128,-1,5
 141 365 141 365 101 333 c 1,6,-1
 304 -146 l 1,7,-1
 248 -107 l 1,8,-1
 -2 338 l 1,9,10
 61 363 61 363 103 398 c 128,-1,11
 145 433 145 433 171.5 466.5 c 128,-1,12
 198 500 198 500 211 525 c 128,-1,13
 224 550 224 550 228 556 c 1,0,-1
EndSplineSet
Validated: 1
EndChar

StartChar: SUNUWAR_LETTER_DEVI
Encoding: 4 72640 4
Width: 461
GlyphClass: 2
Flags: W
LayerCount: 2
Fore
SplineSet
1 549 m 1,0,1
 56 538 56 538 106 530.5 c 128,-1,2
 156 523 156 523 196 523 c 2,3,-1
 233 523 l 2,4,5
 268 523 268 523 300.5 525.5 c 128,-1,6
 333 528 333 528 366 542 c 2,7,-1
 387 550 l 2,8,9
 390 552 390 552 390 550 c 0,10,11
 391 549 391 549 391 548 c 2,12,-1
 384 384 l 2,13,14
 382 345 382 345 380 304.5 c 128,-1,15
 378 264 378 264 378 222 c 0,16,17
 378 160 378 160 380.5 86 c 128,-1,18
 383 12 383 12 388 -76 c 2,19,-1
 391 -136 l 1,20,21
 354 -119 354 -119 317 -111.5 c 128,-1,22
 280 -104 280 -104 241 -104 c 0,23,24
 200 -104 200 -104 155 -113.5 c 128,-1,25
 110 -123 110 -123 62 -150 c 1,26,-1
 2 -95 l 1,27,-1
 123 -50 l 1,28,-1
 123 450 l 1,29,-1
 100 450 l 1,30,-1
 58 452 l 2,31,32
 46 454 46 454 36 463.5 c 128,-1,33
 26 473 26 473 18.5 486 c 128,-1,34
 11 499 11 499 7 513 c 128,-1,35
 3 527 3 527 2 538 c 2,36,-1
 1 546 l 2,37,38
 1 549 1 549 1 549 c 1,0,1
247 -29 m 1,39,-1
 263 -30 l 1,40,-1
 279 -30 l 2,41,42
 280 -30 280 -30 280 -28.5 c 128,-1,43
 280 -27 280 -27 281 -26 c 0,44,45
 281 -22 281 -22 281 -22 c 2,46,47
 281 -20 281 -20 282 -20 c 2,48,-1
 286 -20 l 2,49,50
 289 -20 289 -20 290 -22 c 2,51,-1
 296 -31 l 1,52,-1
 333 -41 l 1,53,54
 330 -14 330 -14 329 14 c 0,55,56
 327 37 327 37 325.5 64 c 128,-1,57
 324 91 324 91 324 114 c 2,58,-1
 324 327 l 2,59,60
 324 363 324 363 322.5 385.5 c 128,-1,61
 321 408 321 408 322 417 c 2,62,-1
 330 452 l 1,63,-1
 180 452 l 1,64,-1
 180 -40 l 1,65,-1
 247 -29 l 1,39,-1
EndSplineSet
Validated: 33
EndChar

StartChar: SUNUWAR_LETTER_EKO
Encoding: 5 72642 5
Width: 441
GlyphClass: 2
Flags: W
LayerCount: 2
Fore
SplineSet
172 -73 m 1,0,-1
 172 296 l 1,1,-1
 97 296 l 1,2,-1
 50 360 l 1,3,-1
 172 360 l 1,4,-1
 172 558 l 1,5,-1
 241 503 l 1,6,-1
 241 360 l 1,7,-1
 298 360 l 1,8,-1
 340 296 l 1,9,-1
 241 296 l 1,10,-1
 241 -73 l 1,11,-1
 309 -73 l 1,12,-1
 371 -143 l 1,13,-1
 59 -143 l 1,14,-1
 0 -73 l 1,15,-1
 172 -73 l 1,0,-1
EndSplineSet
Validated: 1
EndChar

StartChar: SUNUWAR_LETTER_PHAR
Encoding: 6 72665 6
Width: 491
GlyphClass: 2
Flags: W
LayerCount: 2
Fore
SplineSet
2 271 m 0,0,1
 4 318 4 318 10.5 352.5 c 128,-1,2
 17 387 17 387 25.5 412 c 128,-1,3
 34 437 34 437 44 455 c 128,-1,4
 54 473 54 473 63 488 c 0,5,6
 72 502 72 502 87.5 514.5 c 128,-1,7
 103 527 103 527 119.5 535.5 c 128,-1,8
 136 544 136 544 152 548 c 128,-1,9
 168 552 168 552 178 550 c 0,10,11
 185 549 185 549 195 546 c 128,-1,12
 205 543 205 543 214.5 538.5 c 128,-1,13
 224 534 224 534 233 527.5 c 128,-1,14
 242 521 242 521 247 512 c 256,15,16
 252 503 252 503 260 486 c 128,-1,17
 268 469 268 469 277 446 c 128,-1,18
 286 423 286 423 294.5 395.5 c 128,-1,19
 303 368 303 368 309 338 c 1,20,-1
 351 550 l 1,21,-1
 386 509 l 1,22,23
 380 481 380 481 373 445 c 128,-1,24
 366 409 366 409 359.5 370.5 c 128,-1,25
 353 332 353 332 347 293.5 c 128,-1,26
 341 255 341 255 335 222 c 1,27,-1
 421 -146 l 1,28,-1
 365 -108 l 1,29,-1
 313 118 l 1,30,31
 305 73 305 73 298.5 43.5 c 128,-1,32
 292 14 292 14 287.5 -5 c 128,-1,33
 283 -24 283 -24 278.5 -34.5 c 128,-1,34
 274 -45 274 -45 269.5 -53 c 128,-1,35
 265 -61 265 -61 260 -68.5 c 128,-1,36
 255 -76 255 -76 248 -89 c 0,37,38
 231 -113 231 -113 206.5 -122 c 128,-1,39
 182 -131 182 -131 162 -133 c 0,40,41
 132 -136 132 -136 110.5 -132 c 128,-1,42
 89 -128 89 -128 73.5 -118.5 c 128,-1,43
 58 -109 58 -109 47 -93.5 c 128,-1,44
 36 -78 36 -78 27 -57 c 0,45,46
 21 -44 21 -44 16 -24 c 128,-1,47
 11 -4 11 -4 8 19 c 128,-1,48
 5 42 5 42 3 66.5 c 128,-1,49
 1 91 1 91 1 112 c 0,50,51
 1 141 1 141 0.5 186 c 128,-1,52
 0 231 0 231 2 271 c 0,0,1
64 78 m 0,53,54
 69 53 69 53 76 26.5 c 128,-1,55
 83 0 83 0 92 -22 c 128,-1,56
 101 -44 101 -44 112.5 -58.5 c 128,-1,57
 124 -73 124 -73 136 -74 c 0,58,59
 153 -75 153 -75 170 -57 c 128,-1,60
 187 -39 187 -39 202.5 -10 c 128,-1,61
 218 19 218 19 231 55.5 c 128,-1,62
 244 92 244 92 255 127 c 128,-1,63
 266 162 266 162 273.5 192 c 128,-1,64
 281 222 281 222 284 239 c 1,65,66
 271 304 271 304 254 356 c 0,67,68
 247 378 247 378 238 399.5 c 128,-1,69
 229 421 229 421 218.5 437.5 c 128,-1,70
 208 454 208 454 195.5 465 c 128,-1,71
 183 476 183 476 169 477 c 0,72,73
 151 478 151 478 134 463.5 c 128,-1,74
 117 449 117 449 103 425 c 128,-1,75
 89 401 89 401 79 370 c 128,-1,76
 69 339 69 339 64 308 c 0,77,78
 54 246 54 246 53.5 190.5 c 128,-1,79
 53 135 53 135 64 78 c 0,53,54
EndSplineSet
Validated: 33
EndChar

StartChar: SUNUWAR_LETTER_GIL
Encoding: 7 72650 7
Width: 437
GlyphClass: 2
Flags: W
LayerCount: 2
Fore
SplineSet
106 547 m 0,0,1
 136 543 136 543 151.5 521.5 c 128,-1,2
 167 500 167 500 173 475 c 0,3,4
 180 446 180 446 180 410 c 1,5,6
 167 426 167 426 153 439 c 0,7,8
 141 450 141 450 127 458.5 c 128,-1,9
 113 467 113 467 100 467 c 256,10,11
 87 467 87 467 78 454 c 0,12,13
 49 408 49 408 51 369.5 c 128,-1,14
 53 331 53 331 69 302 c 128,-1,15
 85 273 85 273 106.5 255.5 c 128,-1,16
 128 238 128 238 137 235 c 0,17,18
 148 231 148 231 163 231 c 0,19,20
 185 231 185 231 210 238.5 c 128,-1,21
 235 246 235 246 257 254 c 0,22,23
 282 264 282 264 307 277 c 1,24,-1
 307 551 l 1,25,-1
 367 508 l 1,26,-1
 367 48 l 2,27,28
 366 21 366 21 360 -6 c 0,29,30
 355 -29 355 -29 345 -54.5 c 128,-1,31
 335 -80 335 -80 316 -100 c 256,32,33
 297 -120 297 -120 276 -130.5 c 128,-1,34
 255 -141 255 -141 235 -146 c 128,-1,35
 215 -151 215 -151 198.5 -151.5 c 128,-1,36
 182 -152 182 -152 172 -152 c 0,37,38
 140 -151 140 -151 115.5 -145 c 128,-1,39
 91 -139 91 -139 65 -121 c 0,40,41
 47 -108 47 -108 34 -88 c 128,-1,42
 21 -68 21 -68 13 -48 c 128,-1,43
 5 -28 5 -28 2 -12.5 c 128,-1,44
 -1 3 -1 3 1 6 c 0,45,46
 3 8 3 8 12.5 3 c 128,-1,47
 22 -2 22 -2 34 -9.5 c 128,-1,48
 46 -17 46 -17 58 -25.5 c 128,-1,49
 70 -34 70 -34 77 -38 c 0,50,51
 97 -53 97 -53 124 -66 c 128,-1,52
 151 -79 151 -79 180 -79 c 0,53,54
 204 -79 204 -79 228 -67 c 128,-1,55
 252 -55 252 -55 275 -25 c 0,56,57
 289 -7 289 -7 296 28 c 128,-1,58
 303 63 303 63 305 98 c 0,59,60
 308 139 308 139 307 185 c 1,61,62
 286 176 286 176 263 169 c 0,63,64
 243 163 243 163 217 158 c 128,-1,65
 191 153 191 153 163 153 c 0,66,67
 139 153 139 153 114.5 158.5 c 128,-1,68
 90 164 90 164 69 177.5 c 128,-1,69
 48 191 48 191 32 214.5 c 128,-1,70
 16 238 16 238 7 274 c 0,71,72
 3 290 3 290 1.5 317.5 c 128,-1,73
 0 345 0 345 2 376.5 c 128,-1,74
 4 408 4 408 10 440 c 128,-1,75
 16 472 16 472 28.5 496.5 c 128,-1,76
 41 521 41 521 60 535.5 c 128,-1,77
 79 550 79 550 106 547 c 0,0,1
EndSplineSet
Validated: 33
EndChar

StartChar: SUNUWAR_LETTER_HAMSO
Encoding: 8 72651 8
Width: 470
GlyphClass: 2
Flags: W
LayerCount: 2
Fore
SplineSet
0 318 m 1,0,-1
 91 318 l 1,1,-1
 91 550 l 1,2,-1
 152 519 l 1,3,-1
 152 318 l 1,4,-1
 284 318 l 1,5,-1
 400 -151 l 1,6,-1
 334 -93 l 1,7,-1
 242 225 l 1,8,-1
 154 225 l 1,9,-1
 154 -150 l 1,10,-1
 94 -119 l 1,11,-1
 94 225 l 1,12,-1
 30 225 l 1,13,-1
 0 318 l 1,0,-1
EndSplineSet
Validated: 1
EndChar

StartChar: SUNUWAR_LETTER_IMAR
Encoding: 9 72643 9
Width: 290
GlyphClass: 2
Flags: W
LayerCount: 2
Fore
SplineSet
139 505 m 1,0,-1
 141 401 l 1,1,-1
 179 428 l 1,2,-1
 220 357 l 1,3,-1
 139 298 l 1,4,-1
 139 -149 l 1,5,-1
 76 -97 l 1,6,-1
 76 256 l 1,7,-1
 46 238 l 1,8,-1
 0 313 l 1,9,-1
 76 368 l 1,10,-1
 78 551 l 1,11,-1
 139 505 l 1,0,-1
EndSplineSet
Validated: 1
EndChar

StartChar: SUNUWAR_LETTER_JYAH
Encoding: 10 72655 10
Width: 488
GlyphClass: 2
Flags: W
LayerCount: 2
Fore
SplineSet
57 528 m 1,0,-1
 210 -19 l 1,1,-1
 257 274 l 1,2,-1
 228 274 l 1,3,-1
 193 345 l 1,4,-1
 269 347 l 1,5,-1
 310 560 l 1,6,-1
 357 514 l 1,7,-1
 327 345 l 1,8,-1
 392 343 l 1,9,-1
 418 274 l 1,10,-1
 310 274 l 1,11,-1
 240 -141 l 1,12,-1
 182 -96 l 1,13,-1
 0 560 l 1,14,-1
 57 528 l 1,0,-1
EndSplineSet
Validated: 1
EndChar

StartChar: SUNUWAR_LETTER_KIK
Encoding: 11 72646 11
Width: 499
GlyphClass: 2
Flags: W
LayerCount: 2
Fore
SplineSet
0 379 m 1,0,-1
 98 379 l 1,1,-1
 98 550 l 1,2,-1
 150 503 l 1,3,-1
 153 379 l 1,4,-1
 429 379 l 1,5,6
 356 302 356 302 309 228 c 0,7,8
 289 197 289 197 272.5 163.5 c 128,-1,9
 256 130 256 130 248.5 97.5 c 128,-1,10
 241 65 241 65 245 34.5 c 128,-1,11
 249 4 249 4 269 -20 c 0,12,13
 294 -51 294 -51 318 -51 c 0,14,15
 343 -51 343 -51 362.5 -18 c 128,-1,16
 382 15 382 15 393 79 c 1,17,18
 413 38 413 38 418 0 c 0,19,20
 422 -33 422 -33 411 -69 c 128,-1,21
 400 -105 400 -105 358 -130 c 0,22,23
 337 -142 337 -142 318 -142 c 0,24,25
 295 -142 295 -142 277 -127.5 c 128,-1,26
 259 -113 259 -113 245.5 -92.5 c 128,-1,27
 232 -72 232 -72 224 -50 c 128,-1,28
 216 -28 216 -28 213 -12 c 0,29,30
 201 46 201 46 206 94 c 128,-1,31
 211 142 211 142 224.5 182 c 128,-1,32
 238 222 238 222 256 254.5 c 128,-1,33
 274 287 274 287 289 314 c 1,34,-1
 153 314 l 1,35,-1
 153 -141 l 1,36,-1
 98 -87 l 1,37,-1
 101 18 l 1,38,-1
 98 314 l 1,39,-1
 30 314 l 1,40,-1
 0 379 l 1,0,-1
EndSplineSet
Validated: 33
EndChar

StartChar: SUNUWAR_LETTER_MA
Encoding: 12 72647 12
Width: 515
GlyphClass: 2
Flags: W
LayerCount: 2
Fore
SplineSet
14 -33 m 0,0,1
 23 -24 23 -24 35 -10 c 128,-1,2
 47 4 47 4 58 25.5 c 128,-1,3
 69 47 69 47 77 77.5 c 128,-1,4
 85 108 85 108 85 151 c 0,5,6
 85 239 85 239 65 322 c 128,-1,7
 45 405 45 405 19 488 c 1,8,-1
 6 550 l 1,9,-1
 218 545 l 1,10,-1
 368 550 l 1,11,-1
 444 507 l 1,12,13
 423 459 423 459 405 416 c 0,14,15
 390 378 390 378 376.5 340.5 c 128,-1,16
 363 303 363 303 359 280 c 0,17,18
 351 235 351 235 349.5 199.5 c 128,-1,19
 348 164 348 164 349 130 c 0,20,21
 349 76 349 76 356 47 c 128,-1,22
 363 18 363 18 372.5 2 c 128,-1,23
 382 -14 382 -14 393.5 -23 c 128,-1,24
 405 -32 405 -32 415 -46 c 0,25,26
 421 -55 421 -55 428.5 -68.5 c 128,-1,27
 436 -82 436 -82 440.5 -95.5 c 128,-1,28
 445 -109 445 -109 445 -120 c 128,-1,29
 445 -131 445 -131 436 -134 c 0,30,31
 416 -141 416 -141 394 -125.5 c 128,-1,32
 372 -110 372 -110 353 -78.5 c 128,-1,33
 334 -47 334 -47 322 -1 c 128,-1,34
 310 45 310 45 310 100 c 0,35,36
 310 181 310 181 322 272 c 128,-1,37
 334 363 334 363 350 470 c 1,38,-1
 237 470 l 1,39,-1
 237 -141 l 1,40,-1
 186 -84 l 1,41,-1
 186 470 l 1,42,-1
 90 470 l 1,43,44
 98 410 98 410 111.5 341 c 128,-1,45
 125 272 125 272 133 191 c 0,46,47
 137 151 137 151 134.5 116.5 c 128,-1,48
 132 82 132 82 125 53.5 c 128,-1,49
 118 25 118 25 109 1.5 c 128,-1,50
 100 -22 100 -22 90 -40 c 256,51,52
 80 -58 80 -58 72 -77.5 c 128,-1,53
 64 -97 64 -97 56 -113 c 128,-1,54
 48 -129 48 -129 39 -137.5 c 128,-1,55
 30 -146 30 -146 19 -141 c 0,56,57
 10 -138 10 -138 5 -123.5 c 128,-1,58
 0 -109 0 -109 0 -91.5 c 128,-1,59
 0 -74 0 -74 3.5 -57.5 c 128,-1,60
 7 -41 7 -41 14 -33 c 0,0,1
EndSplineSet
Validated: 33
EndChar

StartChar: SUNUWAR_LETTER_LOACHA
Encoding: 13 72656 13
Width: 394
GlyphClass: 2
Flags: W
LayerCount: 2
Fore
SplineSet
1 -71 m 0,0,1
 6 -22 6 -22 19.5 15.5 c 128,-1,2
 33 53 33 53 48 79 c 0,3,4
 66 110 66 110 87 132 c 1,5,-1
 87 551 l 1,6,-1
 144 509 l 1,7,-1
 144 168 l 1,8,9
 163 172 163 172 184 176 c 0,10,11
 202 178 202 178 224 180.5 c 128,-1,12
 246 183 246 183 269 183 c 0,13,14
 300 183 300 183 324 177 c 0,15,16
 325 177 325 177 314.5 175.5 c 128,-1,17
 304 174 304 174 286 170 c 128,-1,18
 268 166 268 166 244.5 158 c 128,-1,19
 221 150 221 150 197 136 c 128,-1,20
 173 122 173 122 150 101 c 128,-1,21
 127 80 127 80 109 51 c 0,22,23
 86 13 86 13 66.5 -23 c 128,-1,24
 47 -59 47 -59 32 -87 c 0,25,26
 15 -120 15 -120 1 -149 c 1,27,28
 0 -132 0 -132 0 -117 c 0,29,30
 0 -104 0 -104 0 -91.5 c 128,-1,31
 0 -79 0 -79 1 -71 c 0,0,1
EndSplineSet
Validated: 1
EndChar

StartChar: SUNUWAR_LETTER_VARCA
Encoding: 14 72659 14
Width: 460
GlyphClass: 2
Flags: W
LayerCount: 2
Fore
SplineSet
65 500 m 1,0,-1
 65 286 l 1,1,-1
 229 65 l 1,2,-1
 341 319 l 1,3,-1
 390 292 l 1,4,5
 373 247 373 247 352 203 c 128,-1,6
 331 159 331 159 309.5 115.5 c 128,-1,7
 288 72 288 72 268 28 c 128,-1,8
 248 -16 248 -16 233 -60 c 1,9,-1
 64 160 l 1,10,-1
 64 -150 l 1,11,-1
 0 -99 l 1,12,-1
 0 550 l 1,13,-1
 65 500 l 1,0,-1
EndSplineSet
Validated: 1
EndChar

StartChar: SUNUWAR_LETTER_NAH
Encoding: 15 72653 15
Width: 475
GlyphClass: 2
Flags: W
LayerCount: 2
Fore
SplineSet
49 545 m 0,0,1
 72 548 72 548 89.5 544.5 c 128,-1,2
 107 541 107 541 120.5 532 c 128,-1,3
 134 523 134 523 143 511 c 128,-1,4
 152 499 152 499 158 485 c 0,5,6
 173 453 173 453 176 411 c 1,7,8
 189 415 189 415 202 417 c 0,9,10
 213 419 213 419 227 420 c 128,-1,11
 241 421 241 421 254 419 c 0,12,13
 282 412 282 412 295 394.5 c 128,-1,14
 308 377 308 377 312.5 354 c 128,-1,15
 317 331 317 331 313.5 305 c 128,-1,16
 310 279 310 279 304.5 255 c 128,-1,17
 299 231 299 231 293 212 c 128,-1,18
 287 193 287 193 286 183 c 0,19,20
 280 147 280 147 277 118.5 c 128,-1,21
 274 90 274 90 269 62 c 0,22,23
 266 46 266 46 268 29.5 c 128,-1,24
 270 13 270 13 275.5 -0.5 c 128,-1,25
 281 -14 281 -14 290 -22.5 c 128,-1,26
 299 -31 299 -31 311 -31 c 0,27,28
 324 -31 324 -31 339 -19 c 128,-1,29
 354 -7 354 -7 371 22 c 1,30,-1
 405 -66 l 1,31,32
 363 -92 363 -92 331.5 -103 c 128,-1,33
 300 -114 300 -114 277 -114 c 0,34,35
 244 -114 244 -114 226.5 -94.5 c 128,-1,36
 209 -75 209 -75 202.5 -45.5 c 128,-1,37
 196 -16 196 -16 197.5 19.5 c 128,-1,38
 199 55 199 55 203.5 87 c 128,-1,39
 208 119 208 119 213.5 143 c 128,-1,40
 219 167 219 167 220 173 c 0,41,42
 227 220 227 220 233.5 255 c 128,-1,43
 240 290 240 290 242.5 314 c 128,-1,44
 245 338 245 338 241.5 350.5 c 128,-1,45
 238 363 238 363 226 364 c 0,46,47
 215 366 215 366 207 365.5 c 128,-1,48
 199 365 199 365 194 364 c 0,49,50
 188 362 188 362 183 360 c 1,51,52
 184 330 184 330 181 303 c 0,53,54
 178 280 178 280 171 257 c 128,-1,55
 164 234 164 234 150 221 c 0,56,57
 141 212 141 212 121 212 c 0,58,59
 106 212 106 212 90.5 223.5 c 128,-1,60
 75 235 75 235 70 267 c 0,61,62
 63 309 63 309 70.5 334.5 c 128,-1,63
 78 360 78 360 89 374 c 0,64,65
 103 390 103 390 122 397 c 1,66,67
 119 417 119 417 114 435 c 0,68,69
 110 450 110 450 103.5 464.5 c 128,-1,70
 97 479 97 479 86 484 c 0,71,72
 80 487 80 487 73 487 c 0,73,74
 63 487 63 487 53.5 482.5 c 128,-1,75
 44 478 44 478 35 472 c 128,-1,76
 26 466 26 466 19 461.5 c 128,-1,77
 12 457 12 457 7 457 c 256,78,79
 2 457 2 457 1 462 c 0,80,81
 -1 469 -1 469 4 482.5 c 128,-1,82
 9 496 9 496 17 509.5 c 128,-1,83
 25 523 25 523 34 533.5 c 128,-1,84
 43 544 43 544 49 545 c 0,0,1
122 257 m 0,85,86
 131 257 131 257 136.5 269 c 128,-1,87
 142 281 142 281 142 295 c 0,88,89
 142 304 142 304 141.5 312 c 128,-1,90
 141 320 141 320 140 327 c 256,91,92
 139 334 139 334 138 341 c 1,93,94
 129 338 129 338 121 332 c 0,95,96
 115 327 115 327 109.5 318 c 128,-1,97
 104 309 104 309 102 295 c 0,98,99
 102 281 102 281 105.5 269 c 128,-1,100
 109 257 109 257 122 257 c 0,85,86
EndSplineSet
Validated: 33
EndChar

StartChar: SUNUWAR_LETTER_OTTHI
Encoding: 16 72657 16
Width: 460
GlyphClass: 2
Flags: W
LayerCount: 2
Fore
SplineSet
0 189 m 2,0,-1
 0 205 l 2,1,2
 0 239 0 239 5 277 c 128,-1,3
 10 315 10 315 20 352.5 c 128,-1,4
 30 390 30 390 45 424.5 c 128,-1,5
 60 459 60 459 81 487 c 0,6,7
 88 496 88 496 93 503 c 128,-1,8
 98 510 98 510 104 516 c 0,9,10
 109 521 109 521 130 533 c 0,11,12
 144 544 144 544 159 547 c 0,13,14
 168 550 168 550 180 550 c 0,15,16
 186 550 186 550 192 548.5 c 128,-1,17
 198 547 198 547 206 545 c 0,18,19
 216 543 216 543 225 541.5 c 128,-1,20
 234 540 234 540 239 538 c 0,21,22
 247 535 247 535 254 531.5 c 128,-1,23
 261 528 261 528 268 525 c 0,24,25
 270 522 270 522 273 520 c 128,-1,26
 276 518 276 518 278 515 c 0,27,28
 302 492 302 492 318.5 469 c 128,-1,29
 335 446 335 446 348 420 c 0,30,31
 359 391 359 391 368.5 361.5 c 128,-1,32
 378 332 378 332 385 302 c 0,33,34
 385 297 385 297 385.5 291 c 128,-1,35
 386 285 386 285 387 277 c 256,36,37
 388 269 388 269 388.5 258 c 128,-1,38
 389 247 389 247 389 234 c 0,39,40
 390 229 390 229 390 219 c 2,41,-1
 390 203 l 2,42,43
 390 195 390 195 389.5 186 c 128,-1,44
 389 177 389 177 389 168 c 0,45,46
 388 159 388 159 387.5 151.5 c 128,-1,47
 387 144 387 144 387 140 c 0,48,49
 385 119 385 119 377 83.5 c 128,-1,50
 369 48 369 48 356 11.5 c 128,-1,51
 343 -25 343 -25 324.5 -57.5 c 128,-1,52
 306 -90 306 -90 283 -106 c 0,53,54
 276 -112 276 -112 263 -118.5 c 128,-1,55
 250 -125 250 -125 235 -130.5 c 128,-1,56
 220 -136 220 -136 205.5 -139 c 128,-1,57
 191 -142 191 -142 180 -142 c 0,58,59
 167 -142 167 -142 156 -138 c 0,60,61
 150 -136 150 -136 144 -134.5 c 128,-1,62
 138 -133 138 -133 136 -131 c 0,63,64
 132 -128 132 -128 130 -126.5 c 128,-1,65
 128 -125 128 -125 124 -123 c 0,66,67
 122 -123 122 -123 120 -121 c 2,68,69
 120 -121 120 -121 119 -120 c 0,70,71
 114 -116 114 -116 111.5 -112.5 c 128,-1,72
 109 -109 109 -109 105 -107 c 2,73,-1
 90 -92 l 1,74,75
 58 -50 58 -50 40.5 -5.5 c 128,-1,76
 23 39 23 39 12 85 c 0,77,78
 10 92 10 92 8 97 c 128,-1,79
 6 102 6 102 6 106 c 0,80,81
 5 111 5 111 4.5 116.5 c 128,-1,82
 4 122 4 122 3 127 c 0,83,84
 2 138 2 138 2 149 c 128,-1,85
 2 160 2 160 1 174 c 0,86,87
 1 178 1 178 0.5 181.5 c 128,-1,88
 0 185 0 185 0 189 c 2,0,-1
77 -11 m 0,89,90
 81 -20 81 -20 90 -27.5 c 128,-1,91
 99 -35 99 -35 104 -42 c 0,92,93
 111 -50 111 -50 122 -54 c 128,-1,94
 133 -58 133 -58 143.5 -59 c 128,-1,95
 154 -60 154 -60 163 -59.5 c 128,-1,96
 172 -59 172 -59 175 -59 c 0,97,98
 183 -59 183 -59 197 -52.5 c 128,-1,99
 211 -46 211 -46 225 -37 c 128,-1,100
 239 -28 239 -28 251.5 -18 c 128,-1,101
 264 -8 264 -8 269 0 c 0,102,103
 271 4 271 4 275 14 c 0,104,105
 292 40 292 40 298.5 70 c 128,-1,106
 305 100 305 100 309 128 c 0,107,108
 311 137 311 137 312 146.5 c 128,-1,109
 313 156 313 156 314 161 c 0,110,111
 314 168 314 168 314 179.5 c 128,-1,112
 314 191 314 191 314 203.5 c 128,-1,113
 314 216 314 216 314 226.5 c 128,-1,114
 314 237 314 237 314 242 c 0,115,116
 312 289 312 289 304.5 332 c 128,-1,117
 297 375 297 375 288.5 408 c 128,-1,118
 280 441 280 441 272.5 460.5 c 128,-1,119
 265 480 265 480 263 480 c 0,120,121
 260 481 260 481 248.5 480 c 128,-1,122
 237 479 237 479 222.5 476 c 128,-1,123
 208 473 208 473 193 466 c 128,-1,124
 178 459 178 459 168 448 c 0,125,126
 146 423 146 423 130.5 404.5 c 128,-1,127
 115 386 115 386 104.5 368 c 128,-1,128
 94 350 94 350 87.5 329.5 c 128,-1,129
 81 309 81 309 77 282 c 0,130,131
 76 277 76 277 75 267 c 128,-1,132
 74 257 74 257 73.5 246.5 c 128,-1,133
 73 236 73 236 72 227 c 128,-1,134
 71 218 71 218 71 215 c 0,135,136
 74 197 74 197 74 185 c 128,-1,137
 74 173 74 173 73.5 165 c 128,-1,138
 73 157 73 157 71.5 152 c 128,-1,139
 70 147 70 147 69 141 c 0,140,141
 68 134 68 134 67.5 114.5 c 128,-1,142
 67 95 67 95 68 71.5 c 128,-1,143
 69 48 69 48 71 25.5 c 128,-1,144
 73 3 73 3 77 -11 c 0,89,90
EndSplineSet
Validated: 33
EndChar

StartChar: SUNUWAR_LETTER_REU
Encoding: 17 72644 17
Width: 504
GlyphClass: 2
Flags: W
LayerCount: 2
Fore
SplineSet
0 541 m 1,0,-1
 251 241 l 1,1,-1
 251 550 l 1,2,-1
 309 494 l 1,3,-1
 309 186 l 1,4,-1
 393 81 l 1,5,-1
 434 -67 l 1,6,-1
 309 89 l 1,7,-1
 309 -150 l 1,8,-1
 251 -95 l 1,9,-1
 251 152 l 1,10,-1
 58 376 l 1,11,-1
 58 -68 l 1,12,-1
 0 -41 l 1,13,-1
 0 541 l 1,0,-1
EndSplineSet
Validated: 1
EndChar

StartChar: SUNUWAR_LETTER_SHYELE
Encoding: 18 72658 18
Width: 470
GlyphClass: 2
Flags: W
LayerCount: 2
Fore
SplineSet
0 -85 m 1,0,-1
 186 238 l 1,1,-1
 90 238 l 1,2,-1
 44 300 l 1,3,-1
 222 300 l 1,4,-1
 322 489 l 1,5,-1
 53 489 l 1,6,-1
 0 550 l 1,7,-1
 365 550 l 1,8,-1
 386 489 l 1,9,-1
 279 300 l 1,10,-1
 355 300 l 1,11,-1
 400 238 l 1,12,-1
 244 238 l 1,13,-1
 20 -150 l 1,14,-1
 0 -85 l 1,0,-1
EndSplineSet
Validated: 1
EndChar

StartChar: SUNUWAR_LETTER_TASLA
Encoding: 19 72641 19
Width: 474
GlyphClass: 2
Flags: W
LayerCount: 2
Fore
SplineSet
-5 397 m 1,0,1
 -5 397 -5 397 3 407.5 c 128,-1,2
 11 418 11 418 25 433 c 128,-1,3
 39 448 39 448 58 466 c 128,-1,4
 77 484 77 484 100 499 c 128,-1,5
 123 514 123 514 148 524 c 128,-1,6
 173 534 173 534 199 534 c 0,7,8
 218 534 218 534 237 527.5 c 128,-1,9
 256 521 256 521 274.5 506 c 128,-1,10
 293 491 293 491 310.5 466 c 128,-1,11
 328 441 328 441 343 404 c 0,12,13
 354 379 354 379 358 346 c 128,-1,14
 362 313 362 313 360 271 c 128,-1,15
 358 229 358 229 349 176 c 128,-1,16
 340 123 340 123 325 57 c 1,17,-1
 361 15 l 1,18,-1
 404 -149 l 1,19,-1
 293 -16 l 1,20,21
 273 -79 273 -79 245 -108.5 c 128,-1,22
 217 -138 217 -138 195 -143 c 0,23,24
 184 -145 184 -145 169.5 -143 c 128,-1,25
 155 -141 155 -141 140 -136.5 c 128,-1,26
 125 -132 125 -132 112 -126.5 c 128,-1,27
 99 -121 99 -121 90 -116 c 0,28,29
 52 -95 52 -95 25.5 -71.5 c 128,-1,30
 -1 -48 -1 -48 -1 -28 c 1,31,-1
 184 229 l 1,32,-1
 276 107 l 1,33,34
 284 149 284 149 286.5 190.5 c 128,-1,35
 289 232 289 232 291 264 c 256,36,37
 293 296 293 296 291 318.5 c 128,-1,38
 289 341 289 341 282 361 c 0,39,40
 273 384 273 384 267.5 402.5 c 128,-1,41
 262 421 262 421 257.5 434 c 128,-1,42
 253 447 253 447 248 455.5 c 128,-1,43
 243 464 243 464 235 467 c 0,44,45
 220 473 220 473 204 473 c 0,46,47
 174 473 174 473 146 454.5 c 128,-1,48
 118 436 118 436 96 413 c 0,49,50
 71 387 71 387 49 353 c 1,51,-1
 -5 397 l 1,0,1
70 -15 m 1,52,53
 73 -20 73 -20 85.5 -32 c 128,-1,54
 98 -44 98 -44 112.5 -56 c 128,-1,55
 127 -68 127 -68 139.5 -76 c 128,-1,56
 152 -84 152 -84 155 -81 c 0,57,58
 174 -83 174 -83 189.5 -68 c 128,-1,59
 205 -53 205 -53 216.5 -33 c 128,-1,60
 228 -13 228 -13 235 7.5 c 128,-1,61
 242 28 242 28 243 38 c 1,62,-1
 169 120 l 1,63,-1
 70 -15 l 1,52,53
EndSplineSet
Validated: 33
EndChar

StartChar: SUNUWAR_LETTER_UUTHI
Encoding: 20 72645 20
Width: 471
GlyphClass: 2
Flags: W
LayerCount: 2
Fore
SplineSet
113 551 m 2,0,-1
 132 551 l 2,1,2
 141 551 141 551 151.5 551 c 128,-1,3
 162 551 162 551 171.5 550 c 128,-1,4
 181 549 181 549 189 547.5 c 128,-1,5
 197 546 197 546 201 544 c 0,6,7
 233 524 233 524 245 481 c 128,-1,8
 257 438 257 438 257 387 c 0,9,10
 258 336 258 336 252.5 283 c 128,-1,11
 247 230 247 230 234 184 c 2,12,-1
 233 180 l 2,13,14
 232 178 232 178 232 175 c 2,15,-1
 231 170 l 2,16,17
 226 147 226 147 223.5 130.5 c 128,-1,18
 221 114 221 114 222 107 c 1,19,20
 226 117 226 117 245 149.5 c 128,-1,21
 264 182 264 182 287 220 c 0,22,23
 298 238 298 238 308.5 255.5 c 128,-1,24
 319 273 319 273 328 288 c 128,-1,25
 337 303 337 303 343.5 314 c 128,-1,26
 350 325 350 325 353 331 c 1,27,-1
 401 282 l 1,28,29
 387 263 387 263 372.5 239 c 128,-1,30
 358 215 358 215 343 188.5 c 128,-1,31
 328 162 328 162 312 135.5 c 128,-1,32
 296 109 296 109 280 85 c 2,33,-1
 246 33 l 2,34,35
 225 2 225 2 206 -27.5 c 128,-1,36
 187 -57 187 -57 172 -81 c 128,-1,37
 157 -105 157 -105 147.5 -121.5 c 128,-1,38
 138 -138 138 -138 135 -144 c 1,39,-1
 135 -138 l 2,40,41
 135 -121 135 -121 141 -85 c 2,42,-1
 146 -47 l 2,43,44
 147 -42 147 -42 148 -37.5 c 128,-1,45
 149 -33 149 -33 149 -32 c 0,46,47
 160 41 160 41 167.5 98 c 128,-1,48
 175 155 175 155 179.5 200.5 c 128,-1,49
 184 246 184 246 186.5 281.5 c 128,-1,50
 189 317 189 317 189 346 c 0,51,52
 189 367 189 367 188.5 388 c 128,-1,53
 188 409 188 409 185.5 427.5 c 128,-1,54
 183 446 183 446 179 460 c 128,-1,55
 175 474 175 474 169 480 c 0,56,57
 166 487 166 487 157 487 c 0,58,59
 147 487 147 487 135 475 c 0,60,61
 129 469 129 469 120 456.5 c 128,-1,62
 111 444 111 444 102.5 427 c 128,-1,63
 94 410 94 410 88 389.5 c 128,-1,64
 82 369 82 369 82 346 c 1,65,-1
 0 425 l 1,66,67
 -1 433 -1 433 8.5 453.5 c 128,-1,68
 18 474 18 474 34 495.5 c 128,-1,69
 50 517 50 517 70.5 534 c 128,-1,70
 91 551 91 551 113 551 c 2,0,-1
EndSplineSet
Validated: 33
EndChar

StartChar: SUNUWAR_LETTER_KLOKO
Encoding: 21 72672 21
Width: 325
GlyphClass: 2
Flags: W
LayerCount: 2
Fore
SplineSet
0 14 m 0,0,1
 1 15 1 15 6 20 c 128,-1,2
 11 25 11 25 18 30.5 c 128,-1,3
 25 36 25 36 34 40 c 128,-1,4
 43 44 43 44 52 44 c 0,5,6
 60 44 60 44 67 40 c 0,7,8
 75 35 75 35 80.5 27 c 128,-1,9
 86 19 86 19 83 3 c 0,10,11
 82 -6 82 -6 84 -17 c 128,-1,12
 86 -28 86 -28 90 -37.5 c 128,-1,13
 94 -47 94 -47 99.5 -53.5 c 128,-1,14
 105 -60 105 -60 111 -60 c 2,15,-1
 132 -60 l 2,16,17
 134 -60 134 -60 144 -54 c 128,-1,18
 154 -48 154 -48 157 -46 c 0,19,20
 180 -32 180 -32 192.5 -3 c 128,-1,21
 205 26 205 26 211.5 61.5 c 128,-1,22
 218 97 218 97 219.5 135.5 c 128,-1,23
 221 174 221 174 221 206 c 0,24,25
 221 231 221 231 216 264.5 c 128,-1,26
 211 298 211 298 201.5 328 c 128,-1,27
 192 358 192 358 177 379 c 128,-1,28
 162 400 162 400 142 400 c 0,29,30
 127 400 127 400 114 386.5 c 128,-1,31
 101 373 101 373 81 346 c 0,32,33
 80 344 80 344 77 337.5 c 128,-1,34
 74 331 74 331 71 324.5 c 128,-1,35
 68 318 68 318 65 312.5 c 128,-1,36
 62 307 62 307 60 306 c 0,37,38
 59 306 59 306 58 305.5 c 128,-1,39
 57 305 57 305 56 305 c 1,40,-1
 56 156 l 1,41,-1
 0 186 l 1,42,-1
 0 550 l 1,43,-1
 56 516 l 1,44,-1
 56 399 l 1,45,46
 60 414 60 414 68.5 427.5 c 128,-1,47
 77 441 77 441 87 451.5 c 128,-1,48
 97 462 97 462 108 468.5 c 128,-1,49
 119 475 119 475 128 476 c 0,50,51
 161 479 161 479 183 464.5 c 128,-1,52
 205 450 205 450 219.5 423.5 c 128,-1,53
 234 397 234 397 241 360.5 c 128,-1,54
 248 324 248 324 251.5 284 c 128,-1,55
 255 244 255 244 255 202 c 128,-1,56
 255 160 255 160 255 122 c 2,57,-1
 255 88 l 2,58,59
 255 46 255 46 246 3.5 c 128,-1,60
 237 -39 237 -39 219.5 -73 c 128,-1,61
 202 -107 202 -107 177.5 -128.5 c 128,-1,62
 153 -150 153 -150 122 -150 c 0,63,64
 99 -150 99 -150 80 -137 c 128,-1,65
 61 -124 61 -124 45.5 -102 c 128,-1,66
 30 -80 30 -80 19 -50 c 128,-1,67
 8 -20 8 -20 0 14 c 0,0,1
EndSplineSet
Validated: 33
EndChar

StartChar: SUNUWAR_LETTER_YAT
Encoding: 22 72660 22
Width: 470
GlyphClass: 2
Flags: W
LayerCount: 2
Fore
SplineSet
0 252 m 0,0,1
 0 300 0 300 8 335.5 c 128,-1,2
 16 371 16 371 24 397 c 0,3,4
 43 478 43 478 92.5 513 c 128,-1,5
 142 548 142 548 216 548 c 0,6,7
 227 548 227 548 236.5 547.5 c 128,-1,8
 246 547 246 547 253 543 c 0,9,10
 261 543 261 543 268.5 540.5 c 128,-1,11
 276 538 276 538 281 536 c 0,12,13
 317 520 317 520 336 498 c 128,-1,14
 355 476 355 476 368 441 c 1,15,-1
 138 -4 l 2,16,17
 139 -6 139 -6 149 -20.5 c 128,-1,18
 159 -35 159 -35 193 -53 c 0,19,20
 197 -57 197 -57 211.5 -64.5 c 128,-1,21
 226 -72 226 -72 245 -72 c 0,22,23
 266 -72 266 -72 287.5 -53.5 c 128,-1,24
 309 -35 309 -35 320 20 c 1,25,-1
 400 -24 l 1,26,-1
 395 -31 l 2,27,28
 395 -32 395 -32 393 -34 c 0,29,30
 393 -35 393 -35 392 -37 c 256,31,32
 391 -39 391 -39 391 -39 c 1,33,-1
 388 -42 l 1,34,35
 376 -61 376 -61 363 -80 c 128,-1,36
 350 -99 350 -99 334.5 -115 c 128,-1,37
 319 -131 319 -131 300 -141 c 128,-1,38
 281 -151 281 -151 258 -151 c 0,39,40
 239 -151 239 -151 217.5 -143 c 128,-1,41
 196 -135 196 -135 175.5 -122.5 c 128,-1,42
 155 -110 155 -110 136.5 -94 c 128,-1,43
 118 -78 118 -78 106 -63 c 1,44,-1
 58 -154 l 1,45,-1
 19 -126 l 1,46,-1
 74 -24 l 1,47,48
 31 61 31 61 15.5 129.5 c 128,-1,49
 0 198 0 198 0 252 c 0,0,1
62 197 m 0,50,51
 64 163 64 163 70 135.5 c 128,-1,52
 76 108 76 108 83.5 87.5 c 128,-1,53
 91 67 91 67 97.5 55 c 128,-1,54
 104 43 104 43 106 40 c 1,55,-1
 297 420 l 2,56,57
 296 422 296 422 289 432.5 c 128,-1,58
 282 443 282 443 269 455 c 128,-1,59
 256 467 256 467 236.5 475.5 c 128,-1,60
 217 484 217 484 190 480 c 0,61,62
 155 475 155 475 130 444.5 c 128,-1,63
 105 414 105 414 89.5 372 c 128,-1,64
 74 330 74 330 67.5 283 c 128,-1,65
 61 236 61 236 62 197 c 0,50,51
EndSplineSet
Validated: 33
EndChar

StartChar: SUNUWAR_LETTER_AAL
Encoding: 23 72662 23
Width: 363
GlyphClass: 2
Flags: W
LayerCount: 2
Fore
SplineSet
293 -151 m 1,0,-1
 0 -31 l 1,1,-1
 129 193 l 1,2,-1
 0 257 l 1,3,-1
 119 477 l 1,4,-1
 31 477 l 1,5,-1
 0 546 l 1,6,-1
 293 550 l 1,7,-1
 293 -151 l 1,0,-1
250 -71 m 1,8,-1
 249 483 l 1,9,-1
 144 481 l 1,10,-1
 56 291 l 1,11,-1
 168 229 l 1,12,-1
 54 9 l 1,13,-1
 250 -71 l 1,8,-1
EndSplineSet
Validated: 1
EndChar

StartChar: SUNUWAR_LETTER_AVA
Encoding: 24 72661 24
Width: 525
GlyphClass: 2
Flags: W
LayerCount: 2
Fore
SplineSet
30 35 m 0,0,1
 45 -5 45 -5 60 -20.5 c 128,-1,2
 75 -36 75 -36 89 -36 c 0,3,4
 101 -36 101 -36 111 -27.5 c 128,-1,5
 121 -19 121 -19 129.5 -8 c 128,-1,6
 138 3 138 3 143.5 15 c 128,-1,7
 149 27 149 27 151 33 c 0,8,9
 153 38 153 38 154 59.5 c 128,-1,10
 155 81 155 81 155 112.5 c 128,-1,11
 155 144 155 144 154.5 182 c 128,-1,12
 154 220 154 220 153 259 c 0,13,14
 151 350 151 350 148 463 c 1,15,-1
 54 392 l 1,16,-1
 0 428 l 1,17,-1
 160 598 l 1,18,-1
 205 529 l 1,19,-1
 215 297 l 1,20,-1
 319 297 l 1,21,22
 301 378 301 378 286 443 c 0,23,24
 280 471 280 471 273.5 497.5 c 128,-1,25
 267 524 267 524 262 546 c 128,-1,26
 257 568 257 568 253.5 582 c 128,-1,27
 250 596 250 596 249 598 c 0,28,29
 247 604 247 604 257.5 593 c 128,-1,30
 268 582 268 582 282 566 c 0,31,32
 298 548 298 548 320 523 c 1,33,34
 352 417 352 417 380 330 c 0,35,36
 396 281 396 281 411 234 c 128,-1,37
 426 187 426 187 436.5 155.5 c 128,-1,38
 447 124 447 124 452 114 c 0,39,40
 458 103 458 103 452.5 99 c 128,-1,41
 447 95 447 95 435.5 94 c 128,-1,42
 424 93 424 93 410 93.5 c 128,-1,43
 396 94 396 94 385 91 c 0,44,45
 364 86 364 86 350.5 73.5 c 128,-1,46
 337 61 337 61 335 35 c 0,47,48
 334 22 334 22 336.5 7 c 128,-1,49
 339 -8 339 -8 344 -20 c 128,-1,50
 349 -32 349 -32 356 -38.5 c 128,-1,51
 363 -45 363 -45 372 -40 c 0,52,53
 412 -18 412 -18 429 -18 c 0,54,55
 443 -18 443 -18 447.5 -29.5 c 128,-1,56
 452 -41 452 -41 452 -63 c 0,57,58
 452 -81 452 -81 448 -81 c 256,59,60
 444 -81 444 -81 435 -74 c 128,-1,61
 426 -67 426 -67 408 -67 c 0,62,63
 400 -67 400 -67 389.5 -69.5 c 128,-1,64
 379 -72 379 -72 366 -79 c 0,65,66
 348 -87 348 -87 336 -87 c 0,67,68
 316 -87 316 -87 302 -73 c 128,-1,69
 288 -59 288 -59 280 -38.5 c 128,-1,70
 272 -18 272 -18 269.5 6 c 128,-1,71
 267 30 267 30 270 51 c 0,72,73
 273 70 273 70 286.5 87 c 128,-1,74
 300 104 300 104 316 118 c 0,75,76
 333 133 333 133 355 147 c 1,77,-1
 331 255 l 1,78,-1
 216 255 l 1,79,-1
 224 51 l 2,80,81
 226 33 226 33 221 14 c 0,82,83
 216 -3 216 -3 204.5 -23 c 128,-1,84
 193 -43 193 -43 168 -63 c 0,85,86
 151 -77 151 -77 135 -82 c 128,-1,87
 119 -87 119 -87 105 -87 c 0,88,89
 76 -87 76 -87 55.5 -72.5 c 128,-1,90
 35 -58 35 -58 28 -44 c 0,91,92
 23 -35 23 -35 17 -12.5 c 128,-1,93
 11 10 11 10 6.5 32.5 c 128,-1,94
 2 55 2 55 0.5 72.5 c 128,-1,95
 -1 90 -1 90 3 90 c 0,96,97
 5 90 5 90 12 77.5 c 128,-1,98
 19 65 19 65 30 35 c 0,0,1
EndSplineSet
Validated: 33
EndChar

StartChar: SUNUWAR_LETTER_CHELAP
Encoding: 25 72669 25
Width: 514
GlyphClass: 2
Flags: W
LayerCount: 2
Fore
SplineSet
161 408 m 1,0,-1
 191 21 l 1,1,-1
 300 11 l 1,2,3
 299 34 299 34 297 58 c 0,4,5
 295 78 295 78 294 102 c 128,-1,6
 293 126 293 126 291 148 c 0,7,8
 289 184 289 184 298 216 c 128,-1,9
 307 248 307 248 319 272 c 0,10,11
 333 300 333 300 351 324 c 1,12,-1
 445 279 l 1,13,14
 414 263 414 263 389 248 c 0,15,16
 367 234 367 234 348 219.5 c 128,-1,17
 329 205 329 205 324 193 c 0,18,19
 316 170 316 170 314.5 138 c 128,-1,20
 313 106 313 106 315 77 c 0,21,22
 318 43 318 43 324 8 c 1,23,-1
 410 -80 l 1,24,-1
 438 -146 l 1,25,26
 415 -118 415 -118 383 -96 c 0,27,28
 355 -76 355 -76 314 -60.5 c 128,-1,29
 273 -45 273 -45 217 -45 c 0,30,31
 201 -45 201 -45 169.5 -61.5 c 128,-1,32
 138 -78 138 -78 106 -98 c 0,33,34
 70 -121 70 -121 28 -150 c 1,35,-1
 2 -71 l 1,36,-1
 156 15 l 1,37,38
 152 125 152 125 135 226 c 0,39,40
 128 269 128 269 116.5 314.5 c 128,-1,41
 105 360 105 360 89 403 c 128,-1,42
 73 446 73 446 51.5 483.5 c 128,-1,43
 30 521 30 521 2 549 c 0,44,45
 -4 555 -4 555 5.5 547 c 128,-1,46
 15 539 15 539 33 523.5 c 128,-1,47
 51 508 51 508 73 488 c 0,48,49
 110 454 110 454 161 408 c 1,0,-1
EndSplineSet
Validated: 33
EndChar

StartChar: SUNUWAR_LETTER_DONGA
Encoding: 26 72663 26
Width: 391
GlyphClass: 2
Flags: W
LayerCount: 2
Fore
SplineSet
142 407 m 1,0,-1
 220 554 l 1,1,-1
 264 515 l 1,2,-1
 215 408 l 1,3,-1
 254 407 l 1,4,-1
 321 366 l 1,5,-1
 199 366 l 1,6,-1
 135 237 l 1,7,8
 170 237 170 237 207 231.5 c 128,-1,9
 244 226 244 226 272.5 201 c 128,-1,10
 301 176 301 176 314 123.5 c 128,-1,11
 327 71 327 71 312 -23 c 0,12,13
 306 -65 306 -65 285.5 -88.5 c 128,-1,14
 265 -112 265 -112 242.5 -123 c 128,-1,15
 220 -134 220 -134 200.5 -136.5 c 128,-1,16
 181 -139 181 -139 176 -140 c 0,17,18
 159 -144 159 -144 141 -144 c 0,19,20
 101 -144 101 -144 75 -124.5 c 128,-1,21
 49 -105 49 -105 33 -80 c 128,-1,22
 17 -55 17 -55 10.5 -32 c 128,-1,23
 4 -9 4 -9 4 -2 c 0,24,25
 4 11 4 11 14 11 c 0,26,27
 27 11 27 11 52.5 -6.5 c 128,-1,28
 78 -24 78 -24 105.5 -45 c 128,-1,29
 133 -66 133 -66 158 -84 c 128,-1,30
 183 -102 183 -102 196 -103 c 0,31,32
 215 -105 215 -105 226.5 -90 c 128,-1,33
 238 -75 238 -75 244 -52.5 c 128,-1,34
 250 -30 250 -30 250.5 -3 c 128,-1,35
 251 24 251 24 246 47 c 0,36,37
 242 70 242 70 230 92 c 128,-1,38
 218 114 218 114 202.5 131.5 c 128,-1,39
 187 149 187 149 170 162 c 128,-1,40
 153 175 153 175 139 180 c 0,41,42
 133 183 133 183 113 184.5 c 128,-1,43
 93 186 93 186 71 188 c 0,44,45
 45 190 45 190 15 191 c 1,46,-1
 118 366 l 1,47,-1
 67 366 l 1,48,-1
 0 410 l 1,49,-1
 142 407 l 1,0,-1
EndSplineSet
Validated: 33
EndChar

StartChar: SUNUWAR_LETTER_KHA
Encoding: 27 72667 27
Width: 500
GlyphClass: 2
Flags: W
LayerCount: 2
Fore
SplineSet
384 549 m 1,0,-1
 430 447 l 1,1,-1
 317 -21 l 1,2,3
 326 -32 326 -32 330 -43.5 c 128,-1,4
 334 -55 334 -55 345 -58 c 0,5,6
 360 -62 360 -62 371 -54.5 c 128,-1,7
 382 -47 382 -47 398 -43 c 1,8,-1
 430 -151 l 1,9,10
 413 -147 413 -147 388 -147 c 0,11,12
 366 -147 366 -147 344 -147.5 c 128,-1,13
 322 -148 322 -148 304 -143.5 c 128,-1,14
 286 -139 286 -139 274.5 -127 c 128,-1,15
 263 -115 263 -115 262 -90 c 1,16,-1
 362 448 l 1,17,-1
 53 448 l 1,18,-1
 53 -151 l 1,19,-1
 0 -94 l 1,20,-1
 0 549 l 1,21,-1
 384 549 l 1,0,-1
EndSplineSet
Validated: 33
EndChar

StartChar: SUNUWAR_LETTER_NGAR
Encoding: 28 72666 28
Width: 515
GlyphClass: 2
Flags: W
LayerCount: 2
Fore
SplineSet
407 546 m 1,0,-1
 425 469 l 1,1,-1
 246 282 l 1,2,3
 293 264 293 264 325.5 245.5 c 128,-1,4
 358 227 358 227 379 207.5 c 128,-1,5
 400 188 400 188 411.5 168 c 128,-1,6
 423 148 423 148 429 128 c 0,7,8
 444 78 444 78 444.5 27.5 c 128,-1,9
 445 -23 445 -23 427 -63.5 c 128,-1,10
 409 -104 409 -104 372 -129 c 128,-1,11
 335 -154 335 -154 276 -152 c 0,12,13
 236 -151 236 -151 196 -130.5 c 128,-1,14
 156 -110 156 -110 121 -83.5 c 128,-1,15
 86 -57 86 -57 58 -32 c 128,-1,16
 30 -7 30 -7 15 2 c 1,17,-1
 0 71 l 1,18,19
 10 62 10 62 31.5 47 c 128,-1,20
 53 32 53 32 81 15 c 128,-1,21
 109 -2 109 -2 140.5 -19.5 c 128,-1,22
 172 -37 172 -37 201.5 -49.5 c 128,-1,23
 231 -62 231 -62 255 -68.5 c 128,-1,24
 279 -75 279 -75 293 -71 c 0,25,26
 342 -56 342 -56 360 -28.5 c 128,-1,27
 378 -1 378 -1 375.5 32 c 128,-1,28
 373 65 373 65 354 100.5 c 128,-1,29
 335 136 335 136 310 167 c 128,-1,30
 285 198 285 198 259 221.5 c 128,-1,31
 233 245 233 245 215 254 c 1,32,-1
 169 210 l 1,33,-1
 140 263 l 1,34,-1
 333 469 l 1,35,-1
 42 469 l 1,36,-1
 0 546 l 1,37,-1
 407 546 l 1,0,-1
EndSplineSet
Validated: 33
EndChar

StartChar: SUNUWAR_LETTER_THARI
Encoding: 29 72664 29
Width: 495
GlyphClass: 2
Flags: W
LayerCount: 2
Fore
SplineSet
0 552 m 1,0,-1
 264 553 l 1,1,-1
 308 504 l 1,2,-1
 308 301 l 1,3,4
 354 281 354 281 380 253.5 c 128,-1,5
 406 226 406 226 416 185 c 0,6,7
 421 164 421 164 423 127 c 128,-1,8
 425 90 425 90 425 45.5 c 128,-1,9
 425 1 425 1 424.5 -45 c 128,-1,10
 424 -91 424 -91 425 -129 c 1,11,-1
 382 -90 l 1,12,13
 382 -37 382 -37 382.5 -6 c 128,-1,14
 383 25 383 25 382.5 45.5 c 128,-1,15
 382 66 382 66 381 80.5 c 128,-1,16
 380 95 380 95 377 114 c 0,17,18
 375 129 375 129 367.5 150 c 128,-1,19
 360 171 360 171 350 190 c 128,-1,20
 340 209 340 209 329 222.5 c 128,-1,21
 318 236 318 236 308 236 c 1,22,23
 308 163 308 163 304.5 99.5 c 128,-1,24
 301 36 301 36 292 -13 c 128,-1,25
 283 -62 283 -62 269 -93 c 128,-1,26
 255 -124 255 -124 234 -132 c 0,27,28
 201 -144 201 -144 170 -144 c 0,29,30
 123 -144 123 -144 97 -121 c 0,31,32
 68 -96 68 -96 48.5 -78 c 128,-1,33
 29 -60 29 -60 21 -31 c 0,34,35
 5 21 5 21 5 95 c 0,36,37
 5 127 5 127 7.5 155.5 c 128,-1,38
 10 184 10 184 19.5 208.5 c 128,-1,39
 29 233 29 233 47.5 253 c 128,-1,40
 66 273 66 273 97 288 c 0,41,42
 126 302 126 302 164.5 301.5 c 128,-1,43
 203 301 203 301 254 301 c 1,44,-1
 255 502 l 1,45,-1
 32 502 l 1,46,-1
 0 552 l 1,0,-1
86 -41 m 0,47,48
 97 -49 97 -49 110.5 -52.5 c 128,-1,49
 124 -56 124 -56 138 -56.5 c 128,-1,50
 152 -57 152 -57 165.5 -56 c 128,-1,51
 179 -55 179 -55 191 -54 c 256,52,53
 203 -53 203 -53 212.5 -41 c 128,-1,54
 222 -29 222 -29 230 -15 c 0,55,56
 238 2 238 2 244 22 c 0,57,58
 247 51 247 51 250 85 c 0,59,60
 252 114 252 114 254 153 c 128,-1,61
 256 192 256 192 255 236 c 1,62,63
 240 238 240 238 226.5 239 c 128,-1,64
 213 240 213 240 202 240 c 0,65,66
 165 240 165 240 142 233.5 c 128,-1,67
 119 227 119 227 106 222 c 0,68,69
 98 219 98 219 89 207 c 128,-1,70
 80 195 80 195 72 180 c 128,-1,71
 64 165 64 165 58 150.5 c 128,-1,72
 52 136 52 136 49 129 c 256,73,74
 46 122 46 122 44 118.5 c 128,-1,75
 42 115 42 115 40.5 109.5 c 128,-1,76
 39 104 39 104 38 95.5 c 128,-1,77
 37 87 37 87 37 70 c 0,78,79
 36 36 36 36 49.5 6 c 128,-1,80
 63 -24 63 -24 86 -41 c 0,47,48
EndSplineSet
Validated: 33
EndChar

StartChar: SUNUWAR_LETTER_TENTU
Encoding: 30 72670 30
Width: 490
GlyphClass: 2
Flags: W
LayerCount: 2
Fore
SplineSet
57 484 m 1,0,-1
 0 551 l 1,1,-1
 393 552 l 1,2,-1
 420 490 l 1,3,-1
 420 490 l 1,4,5
 420 490 420 490 418 488.5 c 128,-1,6
 416 487 416 487 410.5 476.5 c 128,-1,7
 405 466 405 466 394.5 445 c 128,-1,8
 384 424 384 424 366 385 c 2,9,-1
 272 186 l 1,10,-1
 394 -13 l 1,11,-1
 396 -150 l 1,12,-1
 225 139 l 1,13,-1
 65 -150 l 1,14,-1
 38 -99 l 1,15,-1
 187 169 l 1,16,-1
 340 484 l 1,17,-1
 57 484 l 1,0,-1
EndSplineSet
Validated: 5
EndChar

StartChar: SUNUWAR_LETTER_SHYER
Encoding: 31 72668 31
Width: 490
GlyphClass: 2
Flags: W
LayerCount: 2
Fore
SplineSet
68 487 m 1,0,1
 70 369 70 369 73 273 c 0,2,3
 74 233 74 233 75.5 193 c 128,-1,4
 77 153 77 153 78.5 121 c 128,-1,5
 80 89 80 89 81.5 67 c 128,-1,6
 83 45 83 45 84 40 c 0,7,8
 87 31 87 31 90.5 10 c 128,-1,9
 94 -11 94 -11 106 -32.5 c 128,-1,10
 118 -54 118 -54 142.5 -69 c 128,-1,11
 167 -84 167 -84 211 -80 c 0,12,13
 241 -77 241 -77 265 -74 c 128,-1,14
 289 -71 289 -71 305.5 -60.5 c 128,-1,15
 322 -50 322 -50 330.5 -27 c 128,-1,16
 339 -4 339 -4 339 40 c 1,17,-1
 280 472 l 1,18,19
 284 488 284 488 287 497 c 128,-1,20
 290 506 290 506 295.5 511 c 128,-1,21
 301 516 301 516 311 520 c 128,-1,22
 321 524 321 524 339 531 c 1,23,-1
 378 531 l 1,24,-1
 420 462 l 1,25,-1
 339 462 l 1,26,27
 341 419 341 419 349 366.5 c 128,-1,28
 357 314 357 314 366.5 259 c 128,-1,29
 376 204 376 204 386 150.5 c 128,-1,30
 396 97 396 97 402.5 51.5 c 128,-1,31
 409 6 409 6 409 -28.5 c 128,-1,32
 409 -63 409 -63 400 -80 c 0,33,34
 387 -104 387 -104 356.5 -117.5 c 128,-1,35
 326 -131 326 -131 292 -137.5 c 128,-1,36
 258 -144 258 -144 227.5 -145 c 128,-1,37
 197 -146 197 -146 182 -146 c 0,38,39
 163 -146 163 -146 136 -141 c 128,-1,40
 109 -136 109 -136 82 -124 c 128,-1,41
 55 -112 55 -112 32 -91.5 c 128,-1,42
 9 -71 9 -71 0 -40 c 1,43,-1
 0 553 l 1,44,-1
 68 487 l 1,0,1
EndSplineSet
Validated: 33
EndChar

StartChar: StressMark
Encoding: 32 781 32
Width: 0
GlyphClass: 2
Flags: W
LayerCount: 2
Fore
SplineSet
-250 748 m 1,0,-1
 -120 748 l 1,1,-1
 -165 640 l 1,2,-1
 -210 640 l 1,3,-1
 -250 748 l 1,0,-1
EndSplineSet
Validated: 1
EndChar

StartChar: SUNUWAR_LETTER_THELE
Encoding: 33 72671 33
Width: 470
GlyphClass: 2
Flags: W
LayerCount: 2
Fore
SplineSet
0 -121 m 1,0,-1
 315 465 l 1,1,-1
 35 465 l 1,2,-1
 14 549 l 1,3,4
 29 549 29 549 52.5 548.5 c 128,-1,5
 76 548 76 548 103.5 548 c 128,-1,6
 131 548 131 548 161.5 548 c 128,-1,7
 192 548 192 548 221 548 c 0,8,9
 290 549 290 549 368 550 c 1,10,-1
 388 513 l 1,11,-1
 200 181 l 1,12,-1
 327 180 l 1,13,-1
 363 99 l 1,14,-1
 159 102 l 1,15,-1
 65 -76 l 1,16,-1
 354 -73 l 1,17,-1
 400 -149 l 1,18,-1
 32 -149 l 1,19,-1
 0 -121 l 1,0,-1
EndSplineSet
Validated: 1
EndChar

StartChar: HighToLowTone
Encoding: 34 768 34
Width: 0
GlyphClass: 2
Flags: W
LayerCount: 2
Fore
SplineSet
-149 688 m 1,0,-1
 -135 640 l 1,1,-1
 -282 666 l 1,2,-1
 -310 750 l 1,3,-1
 -149 688 l 1,0,-1
EndSplineSet
Validated: 1
EndChar

StartChar: LowToHighTone
Encoding: 35 769 35
Width: 9
GlyphClass: 2
Flags: W
LayerCount: 2
Fore
SplineSet
-240 662 m 1,0,-1
 -180 750 l 1,1,-1
 -51 712 l 1,2,-1
 -160 630 l 1,3,-1
 -240 662 l 1,0,-1
EndSplineSet
Validated: 1
EndChar

StartChar: colon
Encoding: 36 58 36
Width: 150
GlyphClass: 2
Flags: W
LayerCount: 2
Fore
SplineSet
0 9 m 0,0,1
 0 33 0 33 16 50 c 128,-1,2
 32 67 32 67 55 67 c 256,3,4
 78 67 78 67 94 50 c 128,-1,5
 110 33 110 33 110 9 c 0,6,7
 110 -16 110 -16 94 -33 c 128,-1,8
 78 -50 78 -50 55 -50 c 256,9,10
 32 -50 32 -50 16 -33 c 128,-1,11
 0 -16 0 -16 0 9 c 0,0,1
0 439 m 0,12,13
 0 463 0 463 16 480 c 128,-1,14
 32 497 32 497 55 497 c 256,15,16
 78 497 78 497 94 480 c 128,-1,17
 110 463 110 463 110 439 c 0,18,19
 110 414 110 414 94 397 c 128,-1,20
 78 380 78 380 55 380 c 256,21,22
 32 380 32 380 16 397 c 128,-1,23
 0 414 0 414 0 439 c 0,12,13
EndSplineSet
Validated: 1
EndChar

StartChar: SUNUWAR_DIGIT_ONE
Encoding: 37 72689 37
Width: 170
GlyphClass: 2
Flags: W
LayerCount: 2
Fore
SplineSet
95 463 m 1,0,-1
 100 -180 l 1,1,-1
 0 -126 l 1,2,-1
 0 520 l 1,3,-1
 95 463 l 1,0,-1
EndSplineSet
Validated: 1
EndChar

StartChar: SUNUWAR_DIGIT_TWO
Encoding: 38 72690 38
Width: 489
GlyphClass: 2
Flags: W
LayerCount: 2
Fore
SplineSet
39 -118 m 1,0,-1
 39 -23 l 1,1,-1
 183 86 l 1,2,-1
 183 227 l 1,3,-1
 39 106 l 1,4,-1
 39 203 l 1,5,-1
 183 314 l 1,6,-1
 183 520 l 1,7,-1
 247 463 l 1,8,-1
 251 365 l 1,9,-1
 419 497 l 1,10,-1
 419 405 l 1,11,-1
 251 283 l 1,12,-1
 251 139 l 1,13,-1
 419 256 l 1,14,-1
 419 149 l 1,15,-1
 251 42 l 1,16,-1
 251 -180 l 1,17,-1
 183 -126 l 1,18,-1
 182 -11 l 1,19,-1
 39 -118 l 1,0,-1
EndSplineSet
Validated: 1
EndChar

StartChar: SUNUWAR_DIGIT_THREE
Encoding: 39 72691 39
Width: 452
GlyphClass: 2
Flags: W
LayerCount: 2
Fore
SplineSet
39 -21 m 1,0,-1
 161 86 l 1,1,-1
 161 217 l 1,2,-1
 39 129 l 1,3,-1
 39 236 l 1,4,-1
 157 324 l 1,5,-1
 157 510 l 1,6,-1
 198 482 l 1,7,-1
 246 453 l 1,8,-1
 245 375 l 1,9,-1
 382 487 l 1,10,-1
 381 371 l 1,11,-1
 245 273 l 1,12,-1
 245 -190 l 1,13,-1
 157 -136 l 1,14,-1
 156 -21 l 1,15,-1
 39 -128 l 1,16,-1
 39 -21 l 1,0,-1
EndSplineSet
Validated: 1
EndChar

StartChar: SUNUWAR_DIGIT_FOUR
Encoding: 40 72692 40
Width: 472
GlyphClass: 2
Flags: W
LayerCount: 2
Fore
SplineSet
402 500 m 1,0,-1
 400 179 l 1,1,-1
 402 -200 l 1,2,-1
 74 -197 l 1,3,-1
 72 249 l 1,4,-1
 72 500 l 1,5,-1
 402 500 l 1,0,-1
147 -122 m 1,6,-1
 329 -122 l 1,7,-1
 330 436 l 1,8,-1
 144 439 l 1,9,-1
 147 -122 l 1,6,-1
EndSplineSet
Validated: 1
EndChar

StartChar: SUNUWAR_DIGIT_FIVE
Encoding: 41 72693 41
Width: 472
GlyphClass: 2
Flags: W
LayerCount: 2
Fore
SplineSet
402 500 m 1,0,-1
 400 179 l 1,1,-1
 402 -200 l 1,2,-1
 74 -197 l 1,3,-1
 72 249 l 1,4,-1
 72 500 l 1,5,-1
 402 500 l 1,0,-1
150 169 m 1,6,-1
 324 169 l 1,7,-1
 321 274 l 1,8,-1
 329 422 l 1,9,-1
 141 425 l 1,10,-1
 150 169 l 1,6,-1
152 -120 m 1,11,-1
 329 -118 l 1,12,-1
 329 17 l 1,13,-1
 327 90 l 1,14,-1
 152 90 l 1,15,-1
 152 -120 l 1,11,-1
EndSplineSet
Validated: 1
EndChar

StartChar: SUNUWAR_DIGIT_SIX
Encoding: 42 72694 42
Width: 513
GlyphClass: 2
Flags: W
LayerCount: 2
Fore
SplineSet
24 -100 m 1,0,1
 140 99 140 99 169 191 c 0,2,3
 177 214 177 214 185 241 c 128,-1,4
 193 268 193 268 202 300 c 256,5,6
 211 332 211 332 221 367.5 c 128,-1,7
 231 403 231 403 242 444 c 1,8,-1
 218 444 l 1,9,-1
 218 499 l 1,10,-1
 442 499 l 1,11,-1
 443 -201 l 1,12,-1
 24 -199 l 1,13,-1
 24 -100 l 1,0,1
374 -127 m 1,14,-1
 374 422 l 1,15,-1
 305 421 l 1,16,17
 289 369 289 369 274.5 323.5 c 128,-1,18
 260 278 260 278 247 240 c 0,19,20
 222 168 222 168 193 98.5 c 128,-1,21
 164 29 164 29 133 -41 c 0,22,23
 111 -90 111 -90 68 -127 c 1,24,-1
 374 -127 l 1,14,-1
EndSplineSet
Validated: 1
EndChar

StartChar: SUNUWAR_DIGIT_SEVEN
Encoding: 43 72695 43
Width: 603
GlyphClass: 2
Flags: W
LayerCount: 2
Fore
SplineSet
79 -198 m 1,0,-1
 79 502 l 1,1,-1
 381 502 l 2,2,3
 442 502 442 502 427 443 c 0,4,5
 419 414 419 414 411.5 371 c 128,-1,6
 404 328 404 328 396 268 c 0,7,8
 392 239 392 239 394.5 197.5 c 128,-1,9
 397 156 397 156 405.5 105.5 c 128,-1,10
 414 55 414 55 429.5 -1.5 c 128,-1,11
 445 -58 445 -58 467 -116 c 1,12,-1
 497 -116 l 1,13,-1
 533 -198 l 1,14,-1
 79 -198 l 1,0,-1
407 -116 m 1,15,16
 377 -66 377 -66 358.5 -1.5 c 128,-1,17
 340 63 340 63 333.5 133.5 c 128,-1,18
 327 204 327 204 331.5 276.5 c 128,-1,19
 336 349 336 349 351 415 c 1,20,-1
 261 415 l 1,21,-1
 261 210 l 1,22,-1
 256 -116 l 1,23,-1
 407 -116 l 1,15,16
135 -116 m 1,24,-1
 195 -116 l 1,25,-1
 200 210 l 1,26,-1
 200 415 l 1,27,-1
 140 415 l 1,28,-1
 140 36 l 1,29,-1
 135 -116 l 1,24,-1
EndSplineSet
Validated: 33
EndChar

StartChar: SUNUWAR_DIGIT_EIGHT
Encoding: 44 72696 44
Width: 454
GlyphClass: 2
Flags: W
LayerCount: 2
Fore
SplineSet
5 -201 m 1,0,-1
 59 -63 l 1,1,-1
 146 140 l 1,2,-1
 5 499 l 1,3,-1
 84 499 l 1,4,-1
 189 239 l 1,5,-1
 251 389 l 1,6,-1
 303 509 l 1,7,-1
 384 507 l 1,8,-1
 224 151 l 1,9,-1
 306 -40 l 1,10,-1
 377 -201 l 1,11,-1
 299 -201 l 1,12,-1
 186 57 l 1,13,-1
 81 -201 l 1,14,-1
 5 -201 l 1,0,-1
EndSplineSet
Validated: 1
EndChar

StartChar: SUNUWAR_DIGIT_NINE
Encoding: 45 72697 45
Width: 384
GlyphClass: 2
Flags: W
LayerCount: 2
Fore
SplineSet
156 453 m 1,0,-1
 157 292 l 1,1,-1
 245 292 l 1,2,-1
 245 399 l 1,3,-1
 314 346 l 1,4,-1
 314 -32 l 1,5,-1
 245 22 l 1,6,-1
 245 185 l 1,7,-1
 157 185 l 1,8,-1
 160 -190 l 1,9,-1
 72 -136 l 1,10,-1
 72 510 l 1,11,-1
 156 453 l 1,0,-1
EndSplineSet
Validated: 1
EndChar

StartChar: SUNUWAR_DIGIT_ZERO
Encoding: 46 72688 46
Width: 449
GlyphClass: 2
Flags: W
LayerCount: 2
Fore
SplineSet
62 313 m 1,0,1
 110 508 110 508 223 508 c 0,2,3
 334 508 334 508 379 321 c 1,4,-1
 379 10 l 1,5,6
 354 -206 354 -206 222 -191 c 0,7,8
 91 -177 91 -177 67 8 c 1,9,-1
 62 313 l 1,0,1
223 -87 m 0,10,11
 290 -87 290 -87 314 10 c 1,12,-1
 314 208 l 1,13,-1
 137 42 l 1,14,15
 163 -87 163 -87 223 -87 c 0,10,11
132 132 m 1,16,-1
 313 323 l 1,17,-1
 314 319 l 1,18,-1
 314 321 l 1,19,20
 290 411 290 411 223 414 c 256,21,22
 156 417 156 417 132 321 c 1,23,-1
 132 132 l 1,16,-1
132 104 m 1,24,-1
 132 72 l 2,25,26
 132 67 132 67 134 59 c 1,27,-1
 132 104 l 1,24,-1
EndSplineSet
Validated: 33
EndChar

StartChar: period
Encoding: 47 46 47
Width: 404
GlyphClass: 2
Flags: W
LayerCount: 2
Fore
SplineSet
4 30 m 1,0,-1
 154 30 l 1,1,-1
 154 -143 l 1,2,-1
 4 -143 l 1,3,-1
 4 30 l 1,0,-1
EndSplineSet
Validated: 1
EndChar

StartChar: SUNUWAR_SIGN_PVO
Encoding: 48 72673 48
Width: 439
GlyphClass: 2
Flags: W
LayerCount: 2
Fore
SplineSet
80 372 m 0,0,1
 84 351 84 351 88 310.5 c 128,-1,2
 92 270 92 270 95.5 223 c 128,-1,3
 99 176 99 176 101 129.5 c 128,-1,4
 103 83 103 83 103 50 c 0,5,6
 103 42 103 42 102.5 26 c 128,-1,7
 102 10 102 10 101.5 -6 c 128,-1,8
 101 -22 101 -22 101 -35 c 128,-1,9
 101 -48 101 -48 103 -50 c 0,10,11
 109 -56 109 -56 118.5 -65 c 128,-1,12
 128 -74 128 -74 137 -74 c 256,13,14
 146 -74 146 -74 151 -62 c 0,15,16
 155 -51 155 -51 156 -32.5 c 128,-1,17
 157 -14 157 -14 157 9 c 0,18,19
 157 23 157 23 157 38 c 128,-1,20
 157 53 157 53 156 67 c 0,21,22
 153 155 153 155 146 238 c 128,-1,23
 139 321 139 321 131 406 c 0,24,25
 129 432 129 432 132 456 c 128,-1,26
 135 480 135 480 140 499 c 0,27,28
 146 521 146 521 154 540 c 1,29,-1
 199 450 l 1,30,31
 188 428 188 428 181 404 c 0,32,33
 175 383 175 383 171 356 c 128,-1,34
 167 329 167 329 171 300 c 0,35,36
 182 226 182 226 183.5 145 c 128,-1,37
 185 64 185 64 185 -17 c 2,38,-1
 185 -74 l 1,39,40
 194 -71 194 -71 201 -68 c 128,-1,41
 208 -65 208 -65 213 -59.5 c 128,-1,42
 218 -54 218 -54 221.5 -45 c 128,-1,43
 225 -36 225 -36 227 -20 c 0,44,45
 230 1 230 1 230.5 40.5 c 128,-1,46
 231 80 231 80 230.5 125 c 128,-1,47
 230 170 230 170 229.5 214.5 c 128,-1,48
 229 259 229 259 230 290 c 0,49,50
 232 322 232 322 234 345 c 128,-1,51
 236 368 236 368 239 386.5 c 128,-1,52
 242 405 242 405 247 422.5 c 128,-1,53
 252 440 252 440 260 460 c 0,54,55
 273 492 273 492 298.5 504 c 128,-1,56
 324 516 324 516 340 511 c 0,57,58
 354 507 354 507 364.5 477 c 128,-1,59
 375 447 375 447 378 407 c 0,60,61
 380 378 380 378 379.5 348.5 c 128,-1,62
 379 319 379 319 375 293 c 0,63,64
 369 243 369 243 363.5 196 c 128,-1,65
 358 149 358 149 350 120 c 0,66,67
 348 112 348 112 343 82.5 c 128,-1,68
 338 53 338 53 333 21 c 0,69,70
 327 -16 327 -16 320 -60 c 1,71,-1
 310 90 l 2,72,73
 311 104 311 104 313 118 c 0,74,75
 315 129 315 129 316.5 140.5 c 128,-1,76
 318 152 318 152 320 160 c 0,77,78
 324 173 324 173 327 195.5 c 128,-1,79
 330 218 330 218 333 242 c 128,-1,80
 336 266 336 266 338 287 c 128,-1,81
 340 308 340 308 341 318 c 0,82,83
 347 369 347 369 343 396.5 c 128,-1,84
 339 424 339 424 323 420 c 0,85,86
 312 417 312 417 303.5 402.5 c 128,-1,87
 295 388 295 388 289.5 367.5 c 128,-1,88
 284 347 284 347 280.5 323.5 c 128,-1,89
 277 300 277 300 275 280 c 0,90,91
 273 258 273 258 274.5 232 c 128,-1,92
 276 206 276 206 279.5 178 c 128,-1,93
 283 150 283 150 286 120 c 128,-1,94
 289 90 289 90 290 60 c 0,95,96
 290 48 290 48 290.5 34 c 128,-1,97
 291 20 291 20 291 6 c 128,-1,98
 291 -8 291 -8 290.5 -20 c 128,-1,99
 290 -32 290 -32 290 -40 c 0,100,101
 290 -51 290 -51 286 -68 c 128,-1,102
 282 -85 282 -85 280 -90 c 0,103,104
 276 -105 276 -105 262.5 -117.5 c 128,-1,105
 249 -130 249 -130 231.5 -138.5 c 128,-1,106
 214 -147 214 -147 196 -151 c 128,-1,107
 178 -155 178 -155 163 -153 c 0,108,109
 154 -152 154 -152 139.5 -148 c 128,-1,110
 125 -144 125 -144 111 -138 c 128,-1,111
 97 -132 97 -132 85 -124 c 128,-1,112
 73 -116 73 -116 69 -107 c 0,113,114
 63 -95 63 -95 59.5 -76.5 c 128,-1,115
 56 -58 56 -58 56 -31 c 0,116,117
 56 49 56 49 52.5 133.5 c 128,-1,118
 49 218 49 218 41 297 c 0,119,120
 39 320 39 320 34 334.5 c 128,-1,121
 29 349 29 349 24 357 c 0,122,123
 18 367 18 367 10 372 c 1,124,-1
 -2 452 l 2,125,126
 0 453 0 453 3 454 c 0,127,128
 5 454 5 454 8.5 454.5 c 128,-1,129
 12 455 12 455 16 455 c 0,130,131
 24 455 24 455 32.5 452 c 128,-1,132
 41 449 41 449 50 440 c 128,-1,133
 59 431 59 431 67 415 c 128,-1,134
 75 399 75 399 80 372 c 0,0,1
EndSplineSet
Validated: 33
EndChar

StartChar: question
Encoding: 49 63 49
Width: 563
GlyphClass: 2
Flags: W
LayerCount: 2
Fore
SplineSet
145 546 m 0,0,1
 189 546 189 546 220.5 533.5 c 128,-1,2
 252 521 252 521 272.5 501 c 128,-1,3
 293 481 293 481 303 454.5 c 128,-1,4
 313 428 313 428 313 399 c 0,5,6
 313 347 313 347 288 307 c 128,-1,7
 263 267 263 267 227 224 c 0,8,9
 193 184 193 184 180 149 c 128,-1,10
 167 114 167 114 169 76 c 2,11,-1
 170 50 l 1,12,-1
 92 50 l 1,13,-1
 90 76 l 2,14,15
 85 117 85 117 99.5 160.5 c 128,-1,16
 114 204 114 204 152 250 c 0,17,18
 186 290 186 290 204.5 321.5 c 128,-1,19
 223 353 223 353 223 387 c 0,20,21
 223 426 223 426 199 449.5 c 128,-1,22
 175 473 175 473 127 474 c 0,23,24
 100 474 100 474 72.5 465.5 c 128,-1,25
 45 457 45 457 26 443 c 1,26,-1
 1 506 l 1,27,28
 27 524 27 524 66 535 c 128,-1,29
 105 546 105 546 145 546 c 0,0,1
130 -28 m 256,30,31
 156 -28 156 -28 172.5 -45.5 c 128,-1,32
 189 -63 189 -63 189 -91 c 0,33,34
 189 -118 189 -118 173 -136 c 128,-1,35
 157 -154 157 -154 129 -154 c 0,36,37
 103 -154 103 -154 86.5 -136 c 128,-1,38
 70 -118 70 -118 70 -91 c 0,39,40
 70 -63 70 -63 87 -45.5 c 128,-1,41
 104 -28 104 -28 130 -28 c 256,30,31
EndSplineSet
Validated: 33
EndChar

StartChar: CombiningTilde
Encoding: 50 771 50
Width: 0
GlyphClass: 2
Flags: W
LayerCount: 2
Fore
SplineSet
-241 635 m 0,0,1
 -224 625 -224 625 -207 621.5 c 128,-1,2
 -190 618 -190 618 -173 618 c 0,3,4
 -154 618 -154 618 -137 622 c 128,-1,5
 -120 626 -120 626 -107 631 c 0,6,7
 -93 636 -93 636 -80 643 c 1,8,9
 -95 624 -95 624 -112 609 c 0,10,11
 -127 596 -127 596 -147 585.5 c 128,-1,12
 -167 575 -167 575 -190 575 c 0,13,14
 -207 575 -207 575 -222 582 c 0,15,16
 -270 602 -270 602 -301 609.5 c 128,-1,17
 -332 617 -332 617 -351 617 c 0,18,19
 -363 617 -363 617 -370.5 615 c 128,-1,20
 -378 613 -378 613 -383 611 c 0,21,22
 -388 608 -388 608 -390 604 c 1,23,24
 -381 618 -381 618 -369 629 c 0,25,26
 -358 638 -358 638 -342.5 645.5 c 128,-1,27
 -327 653 -327 653 -305 653 c 0,28,29
 -291 653 -291 653 -275 649 c 128,-1,30
 -259 645 -259 645 -241 635 c 0,0,1
EndSplineSet
Validated: 5
EndChar
